%TF.GenerationSoftware,KiCad,Pcbnew,10.0.5*%
%TF.CreationDate,2026-08-14T20:02:37+02:00*%
%TF.ProjectId,focusdock-carrier,666f6375-7364-46f6-936b-2d6361727269,rev?*%
%TF.SameCoordinates,Original*%
%TF.FileFunction,Soldermask,Bot*%
%TF.FilePolarity,Negative*%
%FSLAX46Y46*%
G04 Gerber Fmt 4.6, Leading zero omitted, Abs format (unit mm)*
G04 Created by KiCad (PCBNEW 10.0.5) date 2026-08-14 20:02:37*
%MOMM*%
%LPD*%
G01*
G04 APERTURE LIST*
%ADD10R,1.700000X1.700000*%
%ADD11C,1.700000*%
%ADD12C,3.700000*%
G04 APERTURE END LIST*
D10*
%TO.C,J3*%
X29500000Y-62860000D03*
D11*
X32040000Y-62860000D03*
X34580000Y-62860000D03*
X37120000Y-62860000D03*
X39660000Y-62860000D03*
X42200000Y-62860000D03*
X44740000Y-62860000D03*
X47280000Y-62860000D03*
X49820000Y-62860000D03*
X52360000Y-62860000D03*
X54900000Y-62860000D03*
X57440000Y-62860000D03*
X59980000Y-62860000D03*
X62520000Y-62860000D03*
X65060000Y-62860000D03*
X67600000Y-62860000D03*
X70140000Y-62860000D03*
X72680000Y-62860000D03*
X75220000Y-62860000D03*
X77760000Y-62860000D03*
X80300000Y-62860000D03*
X82840000Y-62860000D03*
%TD*%
D12*
%TO.C,MH1*%
X23500000Y-23500000D03*
%TD*%
D10*
%TO.C,J4*%
X54000000Y-24000000D03*
D11*
X56540000Y-24000000D03*
X59080000Y-24000000D03*
X61620000Y-24000000D03*
X64160000Y-24000000D03*
X66700000Y-24000000D03*
X69240000Y-24000000D03*
X71780000Y-24000000D03*
X74320000Y-24000000D03*
X76860000Y-24000000D03*
X79400000Y-24000000D03*
X81940000Y-24000000D03*
%TD*%
D12*
%TO.C,MH4*%
X86500000Y-67000000D03*
%TD*%
D10*
%TO.C,J1*%
X29500000Y-40000000D03*
D11*
X32040000Y-40000000D03*
X34580000Y-40000000D03*
X37120000Y-40000000D03*
X39660000Y-40000000D03*
X42200000Y-40000000D03*
X44740000Y-40000000D03*
X47280000Y-40000000D03*
X49820000Y-40000000D03*
X52360000Y-40000000D03*
X54900000Y-40000000D03*
X57440000Y-40000000D03*
X59980000Y-40000000D03*
X62520000Y-40000000D03*
X65060000Y-40000000D03*
X67600000Y-40000000D03*
X70140000Y-40000000D03*
X72680000Y-40000000D03*
X75220000Y-40000000D03*
X77760000Y-40000000D03*
X80300000Y-40000000D03*
X82840000Y-40000000D03*
%TD*%
D10*
%TO.C,J2*%
X70620000Y-32000000D03*
D11*
X68080000Y-32000000D03*
X65540000Y-32000000D03*
X63000000Y-32000000D03*
%TD*%
D10*
%TO.C,J5*%
X79580000Y-32000000D03*
D11*
X77040000Y-32000000D03*
X74500000Y-32000000D03*
%TD*%
D10*
%TO.C,J6*%
X35000000Y-32000000D03*
D11*
X37540000Y-32000000D03*
X40080000Y-32000000D03*
X42620000Y-32000000D03*
X45160000Y-32000000D03*
X47700000Y-32000000D03*
%TD*%
D12*
%TO.C,MH2*%
X86500000Y-23500000D03*
%TD*%
%TO.C,MH3*%
X23500000Y-67000000D03*
%TD*%
M02*
