%TF.GenerationSoftware,KiCad,Pcbnew,10.0.5*%
%TF.CreationDate,2026-08-14T20:02:37+02:00*%
%TF.ProjectId,focusdock-carrier,666f6375-7364-46f6-936b-2d6361727269,rev?*%
%TF.SameCoordinates,Original*%
%TF.FileFunction,Legend,Top*%
%TF.FilePolarity,Positive*%
%FSLAX46Y46*%
G04 Gerber Fmt 4.6, Leading zero omitted, Abs format (unit mm)*
G04 Created by KiCad (PCBNEW 10.0.5) date 2026-08-14 20:02:37*
%MOMM*%
%LPD*%
G01*
G04 APERTURE LIST*
G04 Aperture macros list*
%AMRoundRect*
0 Rectangle with rounded corners*
0 $1 Rounding radius*
0 $2 $3 $4 $5 $6 $7 $8 $9 X,Y pos of 4 corners*
0 Add a 4 corners polygon primitive as box body*
4,1,4,$2,$3,$4,$5,$6,$7,$8,$9,$2,$3,0*
0 Add four circle primitives for the rounded corners*
1,1,$1+$1,$2,$3*
1,1,$1+$1,$4,$5*
1,1,$1+$1,$6,$7*
1,1,$1+$1,$8,$9*
0 Add four rect primitives between the rounded corners*
20,1,$1+$1,$2,$3,$4,$5,0*
20,1,$1+$1,$4,$5,$6,$7,0*
20,1,$1+$1,$6,$7,$8,$9,0*
20,1,$1+$1,$8,$9,$2,$3,0*%
%AMFreePoly0*
4,1,23,0.550000,-0.750000,0.000000,-0.750000,0.000000,-0.745722,-0.065263,-0.745722,-0.191342,-0.711940,-0.304381,-0.646677,-0.396677,-0.554381,-0.461940,-0.441342,-0.495722,-0.315263,-0.495722,-0.250000,-0.500000,-0.250000,-0.500000,0.250000,-0.495722,0.250000,-0.495722,0.315263,-0.461940,0.441342,-0.396677,0.554381,-0.304381,0.646677,-0.191342,0.711940,-0.065263,0.745722,0.000000,0.745722,
0.000000,0.750000,0.550000,0.750000,0.550000,-0.750000,0.550000,-0.750000,$1*%
%AMFreePoly1*
4,1,23,0.000000,0.745722,0.065263,0.745722,0.191342,0.711940,0.304381,0.646677,0.396677,0.554381,0.461940,0.441342,0.495722,0.315263,0.495722,0.250000,0.500000,0.250000,0.500000,-0.250000,0.495722,-0.250000,0.495722,-0.315263,0.461940,-0.441342,0.396677,-0.554381,0.304381,-0.646677,0.191342,-0.711940,0.065263,-0.745722,0.000000,-0.745722,0.000000,-0.750000,-0.550000,-0.750000,
-0.550000,0.750000,0.000000,0.750000,0.000000,0.745722,0.000000,0.745722,$1*%
G04 Aperture macros list end*
%ADD10C,0.180000*%
%ADD11C,0.150000*%
%ADD12C,0.120000*%
%ADD13R,1.700000X1.700000*%
%ADD14C,1.700000*%
%ADD15C,3.700000*%
%ADD16RoundRect,0.250000X-0.325000X-0.650000X0.325000X-0.650000X0.325000X0.650000X-0.325000X0.650000X0*%
%ADD17FreePoly0,0.000000*%
%ADD18R,1.000000X1.500000*%
%ADD19FreePoly1,0.000000*%
%ADD20RoundRect,0.250000X-0.250000X-0.475000X0.250000X-0.475000X0.250000X0.475000X-0.250000X0.475000X0*%
%ADD21RoundRect,0.250000X-0.262500X-0.450000X0.262500X-0.450000X0.262500X0.450000X-0.262500X0.450000X0*%
G04 APERTURE END LIST*
D10*
X38809522Y-66529448D02*
X38476189Y-66529448D01*
X38476189Y-67053258D02*
X38476189Y-66053258D01*
X38476189Y-66053258D02*
X38952379Y-66053258D01*
X39476189Y-67053258D02*
X39380951Y-67005639D01*
X39380951Y-67005639D02*
X39333332Y-66958019D01*
X39333332Y-66958019D02*
X39285713Y-66862781D01*
X39285713Y-66862781D02*
X39285713Y-66577067D01*
X39285713Y-66577067D02*
X39333332Y-66481829D01*
X39333332Y-66481829D02*
X39380951Y-66434210D01*
X39380951Y-66434210D02*
X39476189Y-66386591D01*
X39476189Y-66386591D02*
X39619046Y-66386591D01*
X39619046Y-66386591D02*
X39714284Y-66434210D01*
X39714284Y-66434210D02*
X39761903Y-66481829D01*
X39761903Y-66481829D02*
X39809522Y-66577067D01*
X39809522Y-66577067D02*
X39809522Y-66862781D01*
X39809522Y-66862781D02*
X39761903Y-66958019D01*
X39761903Y-66958019D02*
X39714284Y-67005639D01*
X39714284Y-67005639D02*
X39619046Y-67053258D01*
X39619046Y-67053258D02*
X39476189Y-67053258D01*
X40666665Y-67005639D02*
X40571427Y-67053258D01*
X40571427Y-67053258D02*
X40380951Y-67053258D01*
X40380951Y-67053258D02*
X40285713Y-67005639D01*
X40285713Y-67005639D02*
X40238094Y-66958019D01*
X40238094Y-66958019D02*
X40190475Y-66862781D01*
X40190475Y-66862781D02*
X40190475Y-66577067D01*
X40190475Y-66577067D02*
X40238094Y-66481829D01*
X40238094Y-66481829D02*
X40285713Y-66434210D01*
X40285713Y-66434210D02*
X40380951Y-66386591D01*
X40380951Y-66386591D02*
X40571427Y-66386591D01*
X40571427Y-66386591D02*
X40666665Y-66434210D01*
X41523808Y-66386591D02*
X41523808Y-67053258D01*
X41095237Y-66386591D02*
X41095237Y-66910400D01*
X41095237Y-66910400D02*
X41142856Y-67005639D01*
X41142856Y-67005639D02*
X41238094Y-67053258D01*
X41238094Y-67053258D02*
X41380951Y-67053258D01*
X41380951Y-67053258D02*
X41476189Y-67005639D01*
X41476189Y-67005639D02*
X41523808Y-66958019D01*
X41952380Y-67005639D02*
X42047618Y-67053258D01*
X42047618Y-67053258D02*
X42238094Y-67053258D01*
X42238094Y-67053258D02*
X42333332Y-67005639D01*
X42333332Y-67005639D02*
X42380951Y-66910400D01*
X42380951Y-66910400D02*
X42380951Y-66862781D01*
X42380951Y-66862781D02*
X42333332Y-66767543D01*
X42333332Y-66767543D02*
X42238094Y-66719924D01*
X42238094Y-66719924D02*
X42095237Y-66719924D01*
X42095237Y-66719924D02*
X41999999Y-66672305D01*
X41999999Y-66672305D02*
X41952380Y-66577067D01*
X41952380Y-66577067D02*
X41952380Y-66529448D01*
X41952380Y-66529448D02*
X41999999Y-66434210D01*
X41999999Y-66434210D02*
X42095237Y-66386591D01*
X42095237Y-66386591D02*
X42238094Y-66386591D01*
X42238094Y-66386591D02*
X42333332Y-66434210D01*
X42809523Y-67053258D02*
X42809523Y-66053258D01*
X42809523Y-66053258D02*
X43047618Y-66053258D01*
X43047618Y-66053258D02*
X43190475Y-66100877D01*
X43190475Y-66100877D02*
X43285713Y-66196115D01*
X43285713Y-66196115D02*
X43333332Y-66291353D01*
X43333332Y-66291353D02*
X43380951Y-66481829D01*
X43380951Y-66481829D02*
X43380951Y-66624686D01*
X43380951Y-66624686D02*
X43333332Y-66815162D01*
X43333332Y-66815162D02*
X43285713Y-66910400D01*
X43285713Y-66910400D02*
X43190475Y-67005639D01*
X43190475Y-67005639D02*
X43047618Y-67053258D01*
X43047618Y-67053258D02*
X42809523Y-67053258D01*
X43952380Y-67053258D02*
X43857142Y-67005639D01*
X43857142Y-67005639D02*
X43809523Y-66958019D01*
X43809523Y-66958019D02*
X43761904Y-66862781D01*
X43761904Y-66862781D02*
X43761904Y-66577067D01*
X43761904Y-66577067D02*
X43809523Y-66481829D01*
X43809523Y-66481829D02*
X43857142Y-66434210D01*
X43857142Y-66434210D02*
X43952380Y-66386591D01*
X43952380Y-66386591D02*
X44095237Y-66386591D01*
X44095237Y-66386591D02*
X44190475Y-66434210D01*
X44190475Y-66434210D02*
X44238094Y-66481829D01*
X44238094Y-66481829D02*
X44285713Y-66577067D01*
X44285713Y-66577067D02*
X44285713Y-66862781D01*
X44285713Y-66862781D02*
X44238094Y-66958019D01*
X44238094Y-66958019D02*
X44190475Y-67005639D01*
X44190475Y-67005639D02*
X44095237Y-67053258D01*
X44095237Y-67053258D02*
X43952380Y-67053258D01*
X45142856Y-67005639D02*
X45047618Y-67053258D01*
X45047618Y-67053258D02*
X44857142Y-67053258D01*
X44857142Y-67053258D02*
X44761904Y-67005639D01*
X44761904Y-67005639D02*
X44714285Y-66958019D01*
X44714285Y-66958019D02*
X44666666Y-66862781D01*
X44666666Y-66862781D02*
X44666666Y-66577067D01*
X44666666Y-66577067D02*
X44714285Y-66481829D01*
X44714285Y-66481829D02*
X44761904Y-66434210D01*
X44761904Y-66434210D02*
X44857142Y-66386591D01*
X44857142Y-66386591D02*
X45047618Y-66386591D01*
X45047618Y-66386591D02*
X45142856Y-66434210D01*
X45571428Y-67053258D02*
X45571428Y-66053258D01*
X45666666Y-66672305D02*
X45952380Y-67053258D01*
X45952380Y-66386591D02*
X45571428Y-66767543D01*
X47714285Y-66958019D02*
X47666666Y-67005639D01*
X47666666Y-67005639D02*
X47523809Y-67053258D01*
X47523809Y-67053258D02*
X47428571Y-67053258D01*
X47428571Y-67053258D02*
X47285714Y-67005639D01*
X47285714Y-67005639D02*
X47190476Y-66910400D01*
X47190476Y-66910400D02*
X47142857Y-66815162D01*
X47142857Y-66815162D02*
X47095238Y-66624686D01*
X47095238Y-66624686D02*
X47095238Y-66481829D01*
X47095238Y-66481829D02*
X47142857Y-66291353D01*
X47142857Y-66291353D02*
X47190476Y-66196115D01*
X47190476Y-66196115D02*
X47285714Y-66100877D01*
X47285714Y-66100877D02*
X47428571Y-66053258D01*
X47428571Y-66053258D02*
X47523809Y-66053258D01*
X47523809Y-66053258D02*
X47666666Y-66100877D01*
X47666666Y-66100877D02*
X47714285Y-66148496D01*
X48571428Y-67053258D02*
X48571428Y-66529448D01*
X48571428Y-66529448D02*
X48523809Y-66434210D01*
X48523809Y-66434210D02*
X48428571Y-66386591D01*
X48428571Y-66386591D02*
X48238095Y-66386591D01*
X48238095Y-66386591D02*
X48142857Y-66434210D01*
X48571428Y-67005639D02*
X48476190Y-67053258D01*
X48476190Y-67053258D02*
X48238095Y-67053258D01*
X48238095Y-67053258D02*
X48142857Y-67005639D01*
X48142857Y-67005639D02*
X48095238Y-66910400D01*
X48095238Y-66910400D02*
X48095238Y-66815162D01*
X48095238Y-66815162D02*
X48142857Y-66719924D01*
X48142857Y-66719924D02*
X48238095Y-66672305D01*
X48238095Y-66672305D02*
X48476190Y-66672305D01*
X48476190Y-66672305D02*
X48571428Y-66624686D01*
X49047619Y-67053258D02*
X49047619Y-66386591D01*
X49047619Y-66577067D02*
X49095238Y-66481829D01*
X49095238Y-66481829D02*
X49142857Y-66434210D01*
X49142857Y-66434210D02*
X49238095Y-66386591D01*
X49238095Y-66386591D02*
X49333333Y-66386591D01*
X49666667Y-67053258D02*
X49666667Y-66386591D01*
X49666667Y-66577067D02*
X49714286Y-66481829D01*
X49714286Y-66481829D02*
X49761905Y-66434210D01*
X49761905Y-66434210D02*
X49857143Y-66386591D01*
X49857143Y-66386591D02*
X49952381Y-66386591D01*
X50285715Y-67053258D02*
X50285715Y-66386591D01*
X50285715Y-66053258D02*
X50238096Y-66100877D01*
X50238096Y-66100877D02*
X50285715Y-66148496D01*
X50285715Y-66148496D02*
X50333334Y-66100877D01*
X50333334Y-66100877D02*
X50285715Y-66053258D01*
X50285715Y-66053258D02*
X50285715Y-66148496D01*
X51142857Y-67005639D02*
X51047619Y-67053258D01*
X51047619Y-67053258D02*
X50857143Y-67053258D01*
X50857143Y-67053258D02*
X50761905Y-67005639D01*
X50761905Y-67005639D02*
X50714286Y-66910400D01*
X50714286Y-66910400D02*
X50714286Y-66529448D01*
X50714286Y-66529448D02*
X50761905Y-66434210D01*
X50761905Y-66434210D02*
X50857143Y-66386591D01*
X50857143Y-66386591D02*
X51047619Y-66386591D01*
X51047619Y-66386591D02*
X51142857Y-66434210D01*
X51142857Y-66434210D02*
X51190476Y-66529448D01*
X51190476Y-66529448D02*
X51190476Y-66624686D01*
X51190476Y-66624686D02*
X50714286Y-66719924D01*
X51619048Y-67053258D02*
X51619048Y-66386591D01*
X51619048Y-66577067D02*
X51666667Y-66481829D01*
X51666667Y-66481829D02*
X51714286Y-66434210D01*
X51714286Y-66434210D02*
X51809524Y-66386591D01*
X51809524Y-66386591D02*
X51904762Y-66386591D01*
X53000001Y-66672305D02*
X53761906Y-66672305D01*
X55000001Y-66529448D02*
X55333334Y-66529448D01*
X55476191Y-67053258D02*
X55000001Y-67053258D01*
X55000001Y-67053258D02*
X55000001Y-66053258D01*
X55000001Y-66053258D02*
X55476191Y-66053258D01*
X55857144Y-67005639D02*
X56000001Y-67053258D01*
X56000001Y-67053258D02*
X56238096Y-67053258D01*
X56238096Y-67053258D02*
X56333334Y-67005639D01*
X56333334Y-67005639D02*
X56380953Y-66958019D01*
X56380953Y-66958019D02*
X56428572Y-66862781D01*
X56428572Y-66862781D02*
X56428572Y-66767543D01*
X56428572Y-66767543D02*
X56380953Y-66672305D01*
X56380953Y-66672305D02*
X56333334Y-66624686D01*
X56333334Y-66624686D02*
X56238096Y-66577067D01*
X56238096Y-66577067D02*
X56047620Y-66529448D01*
X56047620Y-66529448D02*
X55952382Y-66481829D01*
X55952382Y-66481829D02*
X55904763Y-66434210D01*
X55904763Y-66434210D02*
X55857144Y-66338972D01*
X55857144Y-66338972D02*
X55857144Y-66243734D01*
X55857144Y-66243734D02*
X55904763Y-66148496D01*
X55904763Y-66148496D02*
X55952382Y-66100877D01*
X55952382Y-66100877D02*
X56047620Y-66053258D01*
X56047620Y-66053258D02*
X56285715Y-66053258D01*
X56285715Y-66053258D02*
X56428572Y-66100877D01*
X56857144Y-67053258D02*
X56857144Y-66053258D01*
X56857144Y-66053258D02*
X57238096Y-66053258D01*
X57238096Y-66053258D02*
X57333334Y-66100877D01*
X57333334Y-66100877D02*
X57380953Y-66148496D01*
X57380953Y-66148496D02*
X57428572Y-66243734D01*
X57428572Y-66243734D02*
X57428572Y-66386591D01*
X57428572Y-66386591D02*
X57380953Y-66481829D01*
X57380953Y-66481829D02*
X57333334Y-66529448D01*
X57333334Y-66529448D02*
X57238096Y-66577067D01*
X57238096Y-66577067D02*
X56857144Y-66577067D01*
X57761906Y-66053258D02*
X58380953Y-66053258D01*
X58380953Y-66053258D02*
X58047620Y-66434210D01*
X58047620Y-66434210D02*
X58190477Y-66434210D01*
X58190477Y-66434210D02*
X58285715Y-66481829D01*
X58285715Y-66481829D02*
X58333334Y-66529448D01*
X58333334Y-66529448D02*
X58380953Y-66624686D01*
X58380953Y-66624686D02*
X58380953Y-66862781D01*
X58380953Y-66862781D02*
X58333334Y-66958019D01*
X58333334Y-66958019D02*
X58285715Y-67005639D01*
X58285715Y-67005639D02*
X58190477Y-67053258D01*
X58190477Y-67053258D02*
X57904763Y-67053258D01*
X57904763Y-67053258D02*
X57809525Y-67005639D01*
X57809525Y-67005639D02*
X57761906Y-66958019D01*
X58761906Y-66148496D02*
X58809525Y-66100877D01*
X58809525Y-66100877D02*
X58904763Y-66053258D01*
X58904763Y-66053258D02*
X59142858Y-66053258D01*
X59142858Y-66053258D02*
X59238096Y-66100877D01*
X59238096Y-66100877D02*
X59285715Y-66148496D01*
X59285715Y-66148496D02*
X59333334Y-66243734D01*
X59333334Y-66243734D02*
X59333334Y-66338972D01*
X59333334Y-66338972D02*
X59285715Y-66481829D01*
X59285715Y-66481829D02*
X58714287Y-67053258D01*
X58714287Y-67053258D02*
X59333334Y-67053258D01*
X59761906Y-66672305D02*
X60523811Y-66672305D01*
X60952382Y-67005639D02*
X61095239Y-67053258D01*
X61095239Y-67053258D02*
X61333334Y-67053258D01*
X61333334Y-67053258D02*
X61428572Y-67005639D01*
X61428572Y-67005639D02*
X61476191Y-66958019D01*
X61476191Y-66958019D02*
X61523810Y-66862781D01*
X61523810Y-66862781D02*
X61523810Y-66767543D01*
X61523810Y-66767543D02*
X61476191Y-66672305D01*
X61476191Y-66672305D02*
X61428572Y-66624686D01*
X61428572Y-66624686D02*
X61333334Y-66577067D01*
X61333334Y-66577067D02*
X61142858Y-66529448D01*
X61142858Y-66529448D02*
X61047620Y-66481829D01*
X61047620Y-66481829D02*
X61000001Y-66434210D01*
X61000001Y-66434210D02*
X60952382Y-66338972D01*
X60952382Y-66338972D02*
X60952382Y-66243734D01*
X60952382Y-66243734D02*
X61000001Y-66148496D01*
X61000001Y-66148496D02*
X61047620Y-66100877D01*
X61047620Y-66100877D02*
X61142858Y-66053258D01*
X61142858Y-66053258D02*
X61380953Y-66053258D01*
X61380953Y-66053258D02*
X61523810Y-66100877D01*
X61857144Y-66053258D02*
X62476191Y-66053258D01*
X62476191Y-66053258D02*
X62142858Y-66434210D01*
X62142858Y-66434210D02*
X62285715Y-66434210D01*
X62285715Y-66434210D02*
X62380953Y-66481829D01*
X62380953Y-66481829D02*
X62428572Y-66529448D01*
X62428572Y-66529448D02*
X62476191Y-66624686D01*
X62476191Y-66624686D02*
X62476191Y-66862781D01*
X62476191Y-66862781D02*
X62428572Y-66958019D01*
X62428572Y-66958019D02*
X62380953Y-67005639D01*
X62380953Y-67005639D02*
X62285715Y-67053258D01*
X62285715Y-67053258D02*
X62000001Y-67053258D01*
X62000001Y-67053258D02*
X61904763Y-67005639D01*
X61904763Y-67005639D02*
X61857144Y-66958019D01*
X62904763Y-66672305D02*
X63666668Y-66672305D01*
X64142858Y-67053258D02*
X64142858Y-66053258D01*
X64142858Y-66053258D02*
X64380953Y-66053258D01*
X64380953Y-66053258D02*
X64523810Y-66100877D01*
X64523810Y-66100877D02*
X64619048Y-66196115D01*
X64619048Y-66196115D02*
X64666667Y-66291353D01*
X64666667Y-66291353D02*
X64714286Y-66481829D01*
X64714286Y-66481829D02*
X64714286Y-66624686D01*
X64714286Y-66624686D02*
X64666667Y-66815162D01*
X64666667Y-66815162D02*
X64619048Y-66910400D01*
X64619048Y-66910400D02*
X64523810Y-67005639D01*
X64523810Y-67005639D02*
X64380953Y-67053258D01*
X64380953Y-67053258D02*
X64142858Y-67053258D01*
X65523810Y-67005639D02*
X65428572Y-67053258D01*
X65428572Y-67053258D02*
X65238096Y-67053258D01*
X65238096Y-67053258D02*
X65142858Y-67005639D01*
X65142858Y-67005639D02*
X65095239Y-66910400D01*
X65095239Y-66910400D02*
X65095239Y-66529448D01*
X65095239Y-66529448D02*
X65142858Y-66434210D01*
X65142858Y-66434210D02*
X65238096Y-66386591D01*
X65238096Y-66386591D02*
X65428572Y-66386591D01*
X65428572Y-66386591D02*
X65523810Y-66434210D01*
X65523810Y-66434210D02*
X65571429Y-66529448D01*
X65571429Y-66529448D02*
X65571429Y-66624686D01*
X65571429Y-66624686D02*
X65095239Y-66719924D01*
X65904763Y-66386591D02*
X66142858Y-67053258D01*
X66142858Y-67053258D02*
X66380953Y-66386591D01*
X66761906Y-67053258D02*
X66761906Y-66053258D01*
X67333334Y-67053258D02*
X66904763Y-66481829D01*
X67333334Y-66053258D02*
X66761906Y-66624686D01*
X67761906Y-67053258D02*
X67761906Y-66386591D01*
X67761906Y-66053258D02*
X67714287Y-66100877D01*
X67714287Y-66100877D02*
X67761906Y-66148496D01*
X67761906Y-66148496D02*
X67809525Y-66100877D01*
X67809525Y-66100877D02*
X67761906Y-66053258D01*
X67761906Y-66053258D02*
X67761906Y-66148496D01*
X68095239Y-66386591D02*
X68476191Y-66386591D01*
X68238096Y-66053258D02*
X68238096Y-66910400D01*
X68238096Y-66910400D02*
X68285715Y-67005639D01*
X68285715Y-67005639D02*
X68380953Y-67053258D01*
X68380953Y-67053258D02*
X68476191Y-67053258D01*
X69380953Y-66958019D02*
X69333334Y-67005639D01*
X69333334Y-67005639D02*
X69190477Y-67053258D01*
X69190477Y-67053258D02*
X69095239Y-67053258D01*
X69095239Y-67053258D02*
X68952382Y-67005639D01*
X68952382Y-67005639D02*
X68857144Y-66910400D01*
X68857144Y-66910400D02*
X68809525Y-66815162D01*
X68809525Y-66815162D02*
X68761906Y-66624686D01*
X68761906Y-66624686D02*
X68761906Y-66481829D01*
X68761906Y-66481829D02*
X68809525Y-66291353D01*
X68809525Y-66291353D02*
X68857144Y-66196115D01*
X68857144Y-66196115D02*
X68952382Y-66100877D01*
X68952382Y-66100877D02*
X69095239Y-66053258D01*
X69095239Y-66053258D02*
X69190477Y-66053258D01*
X69190477Y-66053258D02*
X69333334Y-66100877D01*
X69333334Y-66100877D02*
X69380953Y-66148496D01*
X69809525Y-66672305D02*
X70571430Y-66672305D01*
X71571429Y-67053258D02*
X71000001Y-67053258D01*
X71285715Y-67053258D02*
X71285715Y-66053258D01*
X71285715Y-66053258D02*
X71190477Y-66196115D01*
X71190477Y-66196115D02*
X71095239Y-66291353D01*
X71095239Y-66291353D02*
X71000001Y-66338972D01*
D11*
X26184819Y-63193333D02*
X26899104Y-63193333D01*
X26899104Y-63193333D02*
X27041961Y-63240952D01*
X27041961Y-63240952D02*
X27137200Y-63336190D01*
X27137200Y-63336190D02*
X27184819Y-63479047D01*
X27184819Y-63479047D02*
X27184819Y-63574285D01*
X26184819Y-62812380D02*
X26184819Y-62193333D01*
X26184819Y-62193333D02*
X26565771Y-62526666D01*
X26565771Y-62526666D02*
X26565771Y-62383809D01*
X26565771Y-62383809D02*
X26613390Y-62288571D01*
X26613390Y-62288571D02*
X26661009Y-62240952D01*
X26661009Y-62240952D02*
X26756247Y-62193333D01*
X26756247Y-62193333D02*
X26994342Y-62193333D01*
X26994342Y-62193333D02*
X27089580Y-62240952D01*
X27089580Y-62240952D02*
X27137200Y-62288571D01*
X27137200Y-62288571D02*
X27184819Y-62383809D01*
X27184819Y-62383809D02*
X27184819Y-62669523D01*
X27184819Y-62669523D02*
X27137200Y-62764761D01*
X27137200Y-62764761D02*
X27089580Y-62812380D01*
X83833333Y-30509580D02*
X83785714Y-30557200D01*
X83785714Y-30557200D02*
X83642857Y-30604819D01*
X83642857Y-30604819D02*
X83547619Y-30604819D01*
X83547619Y-30604819D02*
X83404762Y-30557200D01*
X83404762Y-30557200D02*
X83309524Y-30461961D01*
X83309524Y-30461961D02*
X83261905Y-30366723D01*
X83261905Y-30366723D02*
X83214286Y-30176247D01*
X83214286Y-30176247D02*
X83214286Y-30033390D01*
X83214286Y-30033390D02*
X83261905Y-29842914D01*
X83261905Y-29842914D02*
X83309524Y-29747676D01*
X83309524Y-29747676D02*
X83404762Y-29652438D01*
X83404762Y-29652438D02*
X83547619Y-29604819D01*
X83547619Y-29604819D02*
X83642857Y-29604819D01*
X83642857Y-29604819D02*
X83785714Y-29652438D01*
X83785714Y-29652438D02*
X83833333Y-29700057D01*
X84166667Y-29604819D02*
X84785714Y-29604819D01*
X84785714Y-29604819D02*
X84452381Y-29985771D01*
X84452381Y-29985771D02*
X84595238Y-29985771D01*
X84595238Y-29985771D02*
X84690476Y-30033390D01*
X84690476Y-30033390D02*
X84738095Y-30081009D01*
X84738095Y-30081009D02*
X84785714Y-30176247D01*
X84785714Y-30176247D02*
X84785714Y-30414342D01*
X84785714Y-30414342D02*
X84738095Y-30509580D01*
X84738095Y-30509580D02*
X84690476Y-30557200D01*
X84690476Y-30557200D02*
X84595238Y-30604819D01*
X84595238Y-30604819D02*
X84309524Y-30604819D01*
X84309524Y-30604819D02*
X84214286Y-30557200D01*
X84214286Y-30557200D02*
X84166667Y-30509580D01*
X66666666Y-28854819D02*
X66666666Y-29569104D01*
X66666666Y-29569104D02*
X66619047Y-29711961D01*
X66619047Y-29711961D02*
X66523809Y-29807200D01*
X66523809Y-29807200D02*
X66380952Y-29854819D01*
X66380952Y-29854819D02*
X66285714Y-29854819D01*
X67142857Y-29854819D02*
X67142857Y-28854819D01*
X67142857Y-28854819D02*
X67523809Y-28854819D01*
X67523809Y-28854819D02*
X67619047Y-28902438D01*
X67619047Y-28902438D02*
X67666666Y-28950057D01*
X67666666Y-28950057D02*
X67714285Y-29045295D01*
X67714285Y-29045295D02*
X67714285Y-29188152D01*
X67714285Y-29188152D02*
X67666666Y-29283390D01*
X67666666Y-29283390D02*
X67619047Y-29331009D01*
X67619047Y-29331009D02*
X67523809Y-29378628D01*
X67523809Y-29378628D02*
X67142857Y-29378628D01*
X68666666Y-29854819D02*
X68095238Y-29854819D01*
X68380952Y-29854819D02*
X68380952Y-28854819D01*
X68380952Y-28854819D02*
X68285714Y-28997676D01*
X68285714Y-28997676D02*
X68190476Y-29092914D01*
X68190476Y-29092914D02*
X68095238Y-29140533D01*
X30833333Y-22679580D02*
X30785714Y-22727200D01*
X30785714Y-22727200D02*
X30642857Y-22774819D01*
X30642857Y-22774819D02*
X30547619Y-22774819D01*
X30547619Y-22774819D02*
X30404762Y-22727200D01*
X30404762Y-22727200D02*
X30309524Y-22631961D01*
X30309524Y-22631961D02*
X30261905Y-22536723D01*
X30261905Y-22536723D02*
X30214286Y-22346247D01*
X30214286Y-22346247D02*
X30214286Y-22203390D01*
X30214286Y-22203390D02*
X30261905Y-22012914D01*
X30261905Y-22012914D02*
X30309524Y-21917676D01*
X30309524Y-21917676D02*
X30404762Y-21822438D01*
X30404762Y-21822438D02*
X30547619Y-21774819D01*
X30547619Y-21774819D02*
X30642857Y-21774819D01*
X30642857Y-21774819D02*
X30785714Y-21822438D01*
X30785714Y-21822438D02*
X30833333Y-21870057D01*
X31785714Y-22774819D02*
X31214286Y-22774819D01*
X31500000Y-22774819D02*
X31500000Y-21774819D01*
X31500000Y-21774819D02*
X31404762Y-21917676D01*
X31404762Y-21917676D02*
X31309524Y-22012914D01*
X31309524Y-22012914D02*
X31214286Y-22060533D01*
X50684819Y-24333333D02*
X51399104Y-24333333D01*
X51399104Y-24333333D02*
X51541961Y-24380952D01*
X51541961Y-24380952D02*
X51637200Y-24476190D01*
X51637200Y-24476190D02*
X51684819Y-24619047D01*
X51684819Y-24619047D02*
X51684819Y-24714285D01*
X51018152Y-23428571D02*
X51684819Y-23428571D01*
X50637200Y-23666666D02*
X51351485Y-23904761D01*
X51351485Y-23904761D02*
X51351485Y-23285714D01*
X26184819Y-40333333D02*
X26899104Y-40333333D01*
X26899104Y-40333333D02*
X27041961Y-40380952D01*
X27041961Y-40380952D02*
X27137200Y-40476190D01*
X27137200Y-40476190D02*
X27184819Y-40619047D01*
X27184819Y-40619047D02*
X27184819Y-40714285D01*
X27184819Y-39333333D02*
X27184819Y-39904761D01*
X27184819Y-39619047D02*
X26184819Y-39619047D01*
X26184819Y-39619047D02*
X26327676Y-39714285D01*
X26327676Y-39714285D02*
X26422914Y-39809523D01*
X26422914Y-39809523D02*
X26470533Y-39904761D01*
X65454819Y-36133333D02*
X66169104Y-36133333D01*
X66169104Y-36133333D02*
X66311961Y-36180952D01*
X66311961Y-36180952D02*
X66407200Y-36276190D01*
X66407200Y-36276190D02*
X66454819Y-36419047D01*
X66454819Y-36419047D02*
X66454819Y-36514285D01*
X65550057Y-35704761D02*
X65502438Y-35657142D01*
X65502438Y-35657142D02*
X65454819Y-35561904D01*
X65454819Y-35561904D02*
X65454819Y-35323809D01*
X65454819Y-35323809D02*
X65502438Y-35228571D01*
X65502438Y-35228571D02*
X65550057Y-35180952D01*
X65550057Y-35180952D02*
X65645295Y-35133333D01*
X65645295Y-35133333D02*
X65740533Y-35133333D01*
X65740533Y-35133333D02*
X65883390Y-35180952D01*
X65883390Y-35180952D02*
X66454819Y-35752380D01*
X66454819Y-35752380D02*
X66454819Y-35133333D01*
X79034819Y-36133333D02*
X79749104Y-36133333D01*
X79749104Y-36133333D02*
X79891961Y-36180952D01*
X79891961Y-36180952D02*
X79987200Y-36276190D01*
X79987200Y-36276190D02*
X80034819Y-36419047D01*
X80034819Y-36419047D02*
X80034819Y-36514285D01*
X79034819Y-35180952D02*
X79034819Y-35657142D01*
X79034819Y-35657142D02*
X79511009Y-35704761D01*
X79511009Y-35704761D02*
X79463390Y-35657142D01*
X79463390Y-35657142D02*
X79415771Y-35561904D01*
X79415771Y-35561904D02*
X79415771Y-35323809D01*
X79415771Y-35323809D02*
X79463390Y-35228571D01*
X79463390Y-35228571D02*
X79511009Y-35180952D01*
X79511009Y-35180952D02*
X79606247Y-35133333D01*
X79606247Y-35133333D02*
X79844342Y-35133333D01*
X79844342Y-35133333D02*
X79939580Y-35180952D01*
X79939580Y-35180952D02*
X79987200Y-35228571D01*
X79987200Y-35228571D02*
X80034819Y-35323809D01*
X80034819Y-35323809D02*
X80034819Y-35561904D01*
X80034819Y-35561904D02*
X79987200Y-35657142D01*
X79987200Y-35657142D02*
X79939580Y-35704761D01*
X31684819Y-32333333D02*
X32399104Y-32333333D01*
X32399104Y-32333333D02*
X32541961Y-32380952D01*
X32541961Y-32380952D02*
X32637200Y-32476190D01*
X32637200Y-32476190D02*
X32684819Y-32619047D01*
X32684819Y-32619047D02*
X32684819Y-32714285D01*
X31684819Y-31428571D02*
X31684819Y-31619047D01*
X31684819Y-31619047D02*
X31732438Y-31714285D01*
X31732438Y-31714285D02*
X31780057Y-31761904D01*
X31780057Y-31761904D02*
X31922914Y-31857142D01*
X31922914Y-31857142D02*
X32113390Y-31904761D01*
X32113390Y-31904761D02*
X32494342Y-31904761D01*
X32494342Y-31904761D02*
X32589580Y-31857142D01*
X32589580Y-31857142D02*
X32637200Y-31809523D01*
X32637200Y-31809523D02*
X32684819Y-31714285D01*
X32684819Y-31714285D02*
X32684819Y-31523809D01*
X32684819Y-31523809D02*
X32637200Y-31428571D01*
X32637200Y-31428571D02*
X32589580Y-31380952D01*
X32589580Y-31380952D02*
X32494342Y-31333333D01*
X32494342Y-31333333D02*
X32256247Y-31333333D01*
X32256247Y-31333333D02*
X32161009Y-31380952D01*
X32161009Y-31380952D02*
X32113390Y-31428571D01*
X32113390Y-31428571D02*
X32065771Y-31523809D01*
X32065771Y-31523809D02*
X32065771Y-31714285D01*
X32065771Y-31714285D02*
X32113390Y-31809523D01*
X32113390Y-31809523D02*
X32161009Y-31857142D01*
X32161009Y-31857142D02*
X32256247Y-31904761D01*
X34833333Y-22679580D02*
X34785714Y-22727200D01*
X34785714Y-22727200D02*
X34642857Y-22774819D01*
X34642857Y-22774819D02*
X34547619Y-22774819D01*
X34547619Y-22774819D02*
X34404762Y-22727200D01*
X34404762Y-22727200D02*
X34309524Y-22631961D01*
X34309524Y-22631961D02*
X34261905Y-22536723D01*
X34261905Y-22536723D02*
X34214286Y-22346247D01*
X34214286Y-22346247D02*
X34214286Y-22203390D01*
X34214286Y-22203390D02*
X34261905Y-22012914D01*
X34261905Y-22012914D02*
X34309524Y-21917676D01*
X34309524Y-21917676D02*
X34404762Y-21822438D01*
X34404762Y-21822438D02*
X34547619Y-21774819D01*
X34547619Y-21774819D02*
X34642857Y-21774819D01*
X34642857Y-21774819D02*
X34785714Y-21822438D01*
X34785714Y-21822438D02*
X34833333Y-21870057D01*
X35214286Y-21870057D02*
X35261905Y-21822438D01*
X35261905Y-21822438D02*
X35357143Y-21774819D01*
X35357143Y-21774819D02*
X35595238Y-21774819D01*
X35595238Y-21774819D02*
X35690476Y-21822438D01*
X35690476Y-21822438D02*
X35738095Y-21870057D01*
X35738095Y-21870057D02*
X35785714Y-21965295D01*
X35785714Y-21965295D02*
X35785714Y-22060533D01*
X35785714Y-22060533D02*
X35738095Y-22203390D01*
X35738095Y-22203390D02*
X35166667Y-22774819D01*
X35166667Y-22774819D02*
X35785714Y-22774819D01*
X49333333Y-34804819D02*
X49000000Y-34328628D01*
X48761905Y-34804819D02*
X48761905Y-33804819D01*
X48761905Y-33804819D02*
X49142857Y-33804819D01*
X49142857Y-33804819D02*
X49238095Y-33852438D01*
X49238095Y-33852438D02*
X49285714Y-33900057D01*
X49285714Y-33900057D02*
X49333333Y-33995295D01*
X49333333Y-33995295D02*
X49333333Y-34138152D01*
X49333333Y-34138152D02*
X49285714Y-34233390D01*
X49285714Y-34233390D02*
X49238095Y-34281009D01*
X49238095Y-34281009D02*
X49142857Y-34328628D01*
X49142857Y-34328628D02*
X48761905Y-34328628D01*
X50285714Y-34804819D02*
X49714286Y-34804819D01*
X50000000Y-34804819D02*
X50000000Y-33804819D01*
X50000000Y-33804819D02*
X49904762Y-33947676D01*
X49904762Y-33947676D02*
X49809524Y-34042914D01*
X49809524Y-34042914D02*
X49714286Y-34090533D01*
%TO.C,J3*%
D12*
X28170000Y-61530000D02*
X29500000Y-61530000D01*
X28170000Y-62860000D02*
X28170000Y-61530000D01*
X30770000Y-61530000D02*
X84170000Y-61530000D01*
X30770000Y-64190000D02*
X30770000Y-61530000D01*
X30770000Y-64190000D02*
X84170000Y-64190000D01*
X84170000Y-64190000D02*
X84170000Y-61530000D01*
%TO.C,C3*%
X83288748Y-31090000D02*
X84711252Y-31090000D01*
X83288748Y-32910000D02*
X84711252Y-32910000D01*
%TO.C,JP1*%
X70950000Y-27800000D02*
X70950000Y-27200000D01*
X71500000Y-29000000D02*
X72100000Y-29000000D01*
X71600000Y-26500000D02*
X74400000Y-26500000D01*
X71800000Y-28700000D02*
X71500000Y-29000000D01*
X71800000Y-28700000D02*
X72100000Y-29000000D01*
X74400000Y-28500000D02*
X71600000Y-28500000D01*
X75050000Y-27200000D02*
X75050000Y-27800000D01*
X70950000Y-27200000D02*
G75*
G02*
X71650000Y-26500000I699999J1D01*
G01*
X71650000Y-28500000D02*
G75*
G02*
X70950000Y-27800000I-1J699999D01*
G01*
X74350000Y-26500000D02*
G75*
G02*
X75050000Y-27200000I0J-700000D01*
G01*
X75050000Y-27800000D02*
G75*
G02*
X74350000Y-28500000I-700000J0D01*
G01*
%TO.C,C1*%
X30738748Y-23265000D02*
X31261252Y-23265000D01*
X30738748Y-24735000D02*
X31261252Y-24735000D01*
%TO.C,J4*%
X52670000Y-22670000D02*
X54000000Y-22670000D01*
X52670000Y-24000000D02*
X52670000Y-22670000D01*
X55270000Y-22670000D02*
X83270000Y-22670000D01*
X55270000Y-25330000D02*
X55270000Y-22670000D01*
X55270000Y-25330000D02*
X83270000Y-25330000D01*
X83270000Y-25330000D02*
X83270000Y-22670000D01*
%TO.C,J1*%
X28170000Y-38670000D02*
X29500000Y-38670000D01*
X28170000Y-40000000D02*
X28170000Y-38670000D01*
X30770000Y-38670000D02*
X84170000Y-38670000D01*
X30770000Y-41330000D02*
X30770000Y-38670000D01*
X30770000Y-41330000D02*
X84170000Y-41330000D01*
X84170000Y-41330000D02*
X84170000Y-38670000D01*
%TO.C,J2*%
X61670000Y-30670000D02*
X61670000Y-33330000D01*
X69350000Y-30670000D02*
X61670000Y-30670000D01*
X69350000Y-30670000D02*
X69350000Y-33330000D01*
X69350000Y-33330000D02*
X61670000Y-33330000D01*
X71950000Y-32000000D02*
X71950000Y-33330000D01*
X71950000Y-33330000D02*
X70620000Y-33330000D01*
%TO.C,J5*%
X73170000Y-30670000D02*
X73170000Y-33330000D01*
X78310000Y-30670000D02*
X73170000Y-30670000D01*
X78310000Y-30670000D02*
X78310000Y-33330000D01*
X78310000Y-33330000D02*
X73170000Y-33330000D01*
X80910000Y-32000000D02*
X80910000Y-33330000D01*
X80910000Y-33330000D02*
X79580000Y-33330000D01*
%TO.C,J6*%
X33670000Y-30670000D02*
X35000000Y-30670000D01*
X33670000Y-32000000D02*
X33670000Y-30670000D01*
X36270000Y-30670000D02*
X49030000Y-30670000D01*
X36270000Y-33330000D02*
X36270000Y-30670000D01*
X36270000Y-33330000D02*
X49030000Y-33330000D01*
X49030000Y-33330000D02*
X49030000Y-30670000D01*
%TO.C,C2*%
X34738748Y-23265000D02*
X35261252Y-23265000D01*
X34738748Y-24735000D02*
X35261252Y-24735000D01*
%TO.C,R1*%
X49272936Y-35265000D02*
X49727064Y-35265000D01*
X49272936Y-36735000D02*
X49727064Y-36735000D01*
%TD*%
%LPC*%
%TO.C,JP1*%
G36*
X72250000Y-26750000D02*
G01*
X73750000Y-26750000D01*
X73750000Y-28250000D01*
X72250000Y-28250000D01*
X72250000Y-26750000D01*
G37*
%TD*%
D13*
%TO.C,J3*%
X29500000Y-62860000D03*
D14*
X32040000Y-62860000D03*
X34580000Y-62860000D03*
X37120000Y-62860000D03*
X39660000Y-62860000D03*
X42200000Y-62860000D03*
X44740000Y-62860000D03*
X47280000Y-62860000D03*
X49820000Y-62860000D03*
X52360000Y-62860000D03*
X54900000Y-62860000D03*
X57440000Y-62860000D03*
X59980000Y-62860000D03*
X62520000Y-62860000D03*
X65060000Y-62860000D03*
X67600000Y-62860000D03*
X70140000Y-62860000D03*
X72680000Y-62860000D03*
X75220000Y-62860000D03*
X77760000Y-62860000D03*
X80300000Y-62860000D03*
X82840000Y-62860000D03*
%TD*%
D15*
%TO.C,MH1*%
X23500000Y-23500000D03*
%TD*%
D16*
%TO.C,C3*%
X82525000Y-32000000D03*
X85475000Y-32000000D03*
%TD*%
D17*
%TO.C,JP1*%
X71700000Y-27500000D03*
D18*
X73000000Y-27500000D03*
D19*
X74300000Y-27500000D03*
%TD*%
D20*
%TO.C,C1*%
X30050000Y-24000000D03*
X31950000Y-24000000D03*
%TD*%
D13*
%TO.C,J4*%
X54000000Y-24000000D03*
D14*
X56540000Y-24000000D03*
X59080000Y-24000000D03*
X61620000Y-24000000D03*
X64160000Y-24000000D03*
X66700000Y-24000000D03*
X69240000Y-24000000D03*
X71780000Y-24000000D03*
X74320000Y-24000000D03*
X76860000Y-24000000D03*
X79400000Y-24000000D03*
X81940000Y-24000000D03*
%TD*%
D15*
%TO.C,MH4*%
X86500000Y-67000000D03*
%TD*%
D13*
%TO.C,J1*%
X29500000Y-40000000D03*
D14*
X32040000Y-40000000D03*
X34580000Y-40000000D03*
X37120000Y-40000000D03*
X39660000Y-40000000D03*
X42200000Y-40000000D03*
X44740000Y-40000000D03*
X47280000Y-40000000D03*
X49820000Y-40000000D03*
X52360000Y-40000000D03*
X54900000Y-40000000D03*
X57440000Y-40000000D03*
X59980000Y-40000000D03*
X62520000Y-40000000D03*
X65060000Y-40000000D03*
X67600000Y-40000000D03*
X70140000Y-40000000D03*
X72680000Y-40000000D03*
X75220000Y-40000000D03*
X77760000Y-40000000D03*
X80300000Y-40000000D03*
X82840000Y-40000000D03*
%TD*%
D13*
%TO.C,J2*%
X70620000Y-32000000D03*
D14*
X68080000Y-32000000D03*
X65540000Y-32000000D03*
X63000000Y-32000000D03*
%TD*%
D13*
%TO.C,J5*%
X79580000Y-32000000D03*
D14*
X77040000Y-32000000D03*
X74500000Y-32000000D03*
%TD*%
D13*
%TO.C,J6*%
X35000000Y-32000000D03*
D14*
X37540000Y-32000000D03*
X40080000Y-32000000D03*
X42620000Y-32000000D03*
X45160000Y-32000000D03*
X47700000Y-32000000D03*
%TD*%
D20*
%TO.C,C2*%
X34050000Y-24000000D03*
X35950000Y-24000000D03*
%TD*%
D21*
%TO.C,R1*%
X48587500Y-36000000D03*
X50412500Y-36000000D03*
%TD*%
D15*
%TO.C,MH2*%
X86500000Y-23500000D03*
%TD*%
%TO.C,MH3*%
X23500000Y-67000000D03*
%TD*%
%LPD*%
M02*
