M48
; DRILL file KiCad 10.0.5 date 2026-08-14T20:02:39
; FORMAT={-:-/ absolute / metric / decimal}
; #@! TF.CreationDate,2026-08-14T20:02:39+02:00
; #@! TF.GenerationSoftware,Kicad,Pcbnew,10.0.5
; #@! TF.FileFunction,Plated,1,2,PTH
FMAT,2
METRIC
; #@! TA.AperFunction,Plated,PTH,ViaDrill
T1C0.300
; #@! TA.AperFunction,Plated,PTH,ComponentDrill
T2C1.000
%
G90
G05
T1
X21.45Y-21.45
X21.45Y-27.45
X21.45Y-33.45
X21.45Y-39.45
X21.45Y-45.45
X21.45Y-51.45
X21.45Y-57.45
X21.45Y-63.45
X27.45Y-27.45
X27.45Y-33.45
X27.45Y-39.45
X27.45Y-45.45
X27.45Y-51.45
X27.45Y-57.45
X27.45Y-63.45
X30.087Y-21.5
X33.45Y-27.45
X33.45Y-33.45
X33.45Y-45.45
X33.45Y-51.45
X33.45Y-57.45
X34.087Y-21.5
X39.45Y-27.45
X39.45Y-45.45
X39.45Y-51.45
X39.45Y-57.45
X45.45Y-27.45
X45.45Y-45.45
X45.45Y-51.45
X45.45Y-57.45
X51.45Y-27.45
X51.45Y-45.45
X51.45Y-51.45
X51.45Y-57.45
X57.45Y-27.45
X57.45Y-45.45
X57.45Y-51.45
X57.45Y-57.45
X63.45Y-45.45
X63.45Y-51.45
X63.45Y-57.45
X69.45Y-45.45
X69.45Y-51.45
X69.45Y-57.45
X75.45Y-21.45
X75.45Y-27.45
X75.45Y-45.45
X75.45Y-51.45
X75.45Y-57.45
X81.45Y-21.45
X81.45Y-27.45
X81.45Y-33.45
X81.45Y-45.45
X81.45Y-51.45
X81.45Y-57.45
X87.45Y-27.45
X87.45Y-39.45
X87.45Y-45.45
X87.45Y-51.45
X87.45Y-57.45
X87.45Y-63.45
T2
X29.5Y-40.0
X29.5Y-62.86
X32.04Y-40.0
X32.04Y-62.86
X34.58Y-40.0
X34.58Y-62.86
X35.0Y-32.0
X37.12Y-40.0
X37.12Y-62.86
X37.54Y-32.0
X39.66Y-40.0
X39.66Y-62.86
X40.08Y-32.0
X42.2Y-40.0
X42.2Y-62.86
X42.62Y-32.0
X44.74Y-40.0
X44.74Y-62.86
X45.16Y-32.0
X47.28Y-40.0
X47.28Y-62.86
X47.7Y-32.0
X49.82Y-40.0
X49.82Y-62.86
X52.36Y-40.0
X52.36Y-62.86
X54.0Y-24.0
X54.9Y-40.0
X54.9Y-62.86
X56.54Y-24.0
X57.44Y-40.0
X57.44Y-62.86
X59.08Y-24.0
X59.98Y-40.0
X59.98Y-62.86
X61.62Y-24.0
X62.52Y-40.0
X62.52Y-62.86
X63.0Y-32.0
X64.16Y-24.0
X65.06Y-40.0
X65.06Y-62.86
X65.54Y-32.0
X66.7Y-24.0
X67.6Y-40.0
X67.6Y-62.86
X68.08Y-32.0
X69.24Y-24.0
X70.14Y-40.0
X70.14Y-62.86
X70.62Y-32.0
X71.78Y-24.0
X72.68Y-40.0
X72.68Y-62.86
X74.32Y-24.0
X74.5Y-32.0
X75.22Y-40.0
X75.22Y-62.86
X76.86Y-24.0
X77.04Y-32.0
X77.76Y-40.0
X77.76Y-62.86
X79.4Y-24.0
X79.58Y-32.0
X80.3Y-40.0
X80.3Y-62.86
X81.94Y-24.0
X82.84Y-40.0
X82.84Y-62.86
M30
