%TF.GenerationSoftware,KiCad,Pcbnew,10.0.5*%
%TF.CreationDate,2026-08-14T20:02:37+02:00*%
%TF.ProjectId,focusdock-carrier,666f6375-7364-46f6-936b-2d6361727269,rev?*%
%TF.SameCoordinates,Original*%
%TF.FileFunction,Soldermask,Top*%
%TF.FilePolarity,Negative*%
%FSLAX46Y46*%
G04 Gerber Fmt 4.6, Leading zero omitted, Abs format (unit mm)*
G04 Created by KiCad (PCBNEW 10.0.5) date 2026-08-14 20:02:37*
%MOMM*%
%LPD*%
G01*
G04 APERTURE LIST*
G04 Aperture macros list*
%AMRoundRect*
0 Rectangle with rounded corners*
0 $1 Rounding radius*
0 $2 $3 $4 $5 $6 $7 $8 $9 X,Y pos of 4 corners*
0 Add a 4 corners polygon primitive as box body*
4,1,4,$2,$3,$4,$5,$6,$7,$8,$9,$2,$3,0*
0 Add four circle primitives for the rounded corners*
1,1,$1+$1,$2,$3*
1,1,$1+$1,$4,$5*
1,1,$1+$1,$6,$7*
1,1,$1+$1,$8,$9*
0 Add four rect primitives between the rounded corners*
20,1,$1+$1,$2,$3,$4,$5,0*
20,1,$1+$1,$4,$5,$6,$7,0*
20,1,$1+$1,$6,$7,$8,$9,0*
20,1,$1+$1,$8,$9,$2,$3,0*%
%AMFreePoly0*
4,1,23,0.550000,-0.750000,0.000000,-0.750000,0.000000,-0.745722,-0.065263,-0.745722,-0.191342,-0.711940,-0.304381,-0.646677,-0.396677,-0.554381,-0.461940,-0.441342,-0.495722,-0.315263,-0.495722,-0.250000,-0.500000,-0.250000,-0.500000,0.250000,-0.495722,0.250000,-0.495722,0.315263,-0.461940,0.441342,-0.396677,0.554381,-0.304381,0.646677,-0.191342,0.711940,-0.065263,0.745722,0.000000,0.745722,
0.000000,0.750000,0.550000,0.750000,0.550000,-0.750000,0.550000,-0.750000,$1*%
%AMFreePoly1*
4,1,23,0.000000,0.745722,0.065263,0.745722,0.191342,0.711940,0.304381,0.646677,0.396677,0.554381,0.461940,0.441342,0.495722,0.315263,0.495722,0.250000,0.500000,0.250000,0.500000,-0.250000,0.495722,-0.250000,0.495722,-0.315263,0.461940,-0.441342,0.396677,-0.554381,0.304381,-0.646677,0.191342,-0.711940,0.065263,-0.745722,0.000000,-0.745722,0.000000,-0.750000,-0.550000,-0.750000,
-0.550000,0.750000,0.000000,0.750000,0.000000,0.745722,0.000000,0.745722,$1*%
G04 Aperture macros list end*
%ADD10R,1.700000X1.700000*%
%ADD11C,1.700000*%
%ADD12C,3.700000*%
%ADD13RoundRect,0.250000X-0.325000X-0.650000X0.325000X-0.650000X0.325000X0.650000X-0.325000X0.650000X0*%
%ADD14FreePoly0,0.000000*%
%ADD15R,1.000000X1.500000*%
%ADD16FreePoly1,0.000000*%
%ADD17RoundRect,0.250000X-0.250000X-0.475000X0.250000X-0.475000X0.250000X0.475000X-0.250000X0.475000X0*%
%ADD18RoundRect,0.250000X-0.262500X-0.450000X0.262500X-0.450000X0.262500X0.450000X-0.262500X0.450000X0*%
G04 APERTURE END LIST*
%TO.C,JP1*%
G36*
X72250000Y-26750000D02*
G01*
X73750000Y-26750000D01*
X73750000Y-28250000D01*
X72250000Y-28250000D01*
X72250000Y-26750000D01*
G37*
%TD*%
D10*
%TO.C,J3*%
X29500000Y-62860000D03*
D11*
X32040000Y-62860000D03*
X34580000Y-62860000D03*
X37120000Y-62860000D03*
X39660000Y-62860000D03*
X42200000Y-62860000D03*
X44740000Y-62860000D03*
X47280000Y-62860000D03*
X49820000Y-62860000D03*
X52360000Y-62860000D03*
X54900000Y-62860000D03*
X57440000Y-62860000D03*
X59980000Y-62860000D03*
X62520000Y-62860000D03*
X65060000Y-62860000D03*
X67600000Y-62860000D03*
X70140000Y-62860000D03*
X72680000Y-62860000D03*
X75220000Y-62860000D03*
X77760000Y-62860000D03*
X80300000Y-62860000D03*
X82840000Y-62860000D03*
%TD*%
D12*
%TO.C,MH1*%
X23500000Y-23500000D03*
%TD*%
D13*
%TO.C,C3*%
X82525000Y-32000000D03*
X85475000Y-32000000D03*
%TD*%
D14*
%TO.C,JP1*%
X71700000Y-27500000D03*
D15*
X73000000Y-27500000D03*
D16*
X74300000Y-27500000D03*
%TD*%
D17*
%TO.C,C1*%
X30050000Y-24000000D03*
X31950000Y-24000000D03*
%TD*%
D10*
%TO.C,J4*%
X54000000Y-24000000D03*
D11*
X56540000Y-24000000D03*
X59080000Y-24000000D03*
X61620000Y-24000000D03*
X64160000Y-24000000D03*
X66700000Y-24000000D03*
X69240000Y-24000000D03*
X71780000Y-24000000D03*
X74320000Y-24000000D03*
X76860000Y-24000000D03*
X79400000Y-24000000D03*
X81940000Y-24000000D03*
%TD*%
D12*
%TO.C,MH4*%
X86500000Y-67000000D03*
%TD*%
D10*
%TO.C,J1*%
X29500000Y-40000000D03*
D11*
X32040000Y-40000000D03*
X34580000Y-40000000D03*
X37120000Y-40000000D03*
X39660000Y-40000000D03*
X42200000Y-40000000D03*
X44740000Y-40000000D03*
X47280000Y-40000000D03*
X49820000Y-40000000D03*
X52360000Y-40000000D03*
X54900000Y-40000000D03*
X57440000Y-40000000D03*
X59980000Y-40000000D03*
X62520000Y-40000000D03*
X65060000Y-40000000D03*
X67600000Y-40000000D03*
X70140000Y-40000000D03*
X72680000Y-40000000D03*
X75220000Y-40000000D03*
X77760000Y-40000000D03*
X80300000Y-40000000D03*
X82840000Y-40000000D03*
%TD*%
D10*
%TO.C,J2*%
X70620000Y-32000000D03*
D11*
X68080000Y-32000000D03*
X65540000Y-32000000D03*
X63000000Y-32000000D03*
%TD*%
D10*
%TO.C,J5*%
X79580000Y-32000000D03*
D11*
X77040000Y-32000000D03*
X74500000Y-32000000D03*
%TD*%
D10*
%TO.C,J6*%
X35000000Y-32000000D03*
D11*
X37540000Y-32000000D03*
X40080000Y-32000000D03*
X42620000Y-32000000D03*
X45160000Y-32000000D03*
X47700000Y-32000000D03*
%TD*%
D17*
%TO.C,C2*%
X34050000Y-24000000D03*
X35950000Y-24000000D03*
%TD*%
D18*
%TO.C,R1*%
X48587500Y-36000000D03*
X50412500Y-36000000D03*
%TD*%
D12*
%TO.C,MH2*%
X86500000Y-23500000D03*
%TD*%
%TO.C,MH3*%
X23500000Y-67000000D03*
%TD*%
M02*
